<mxfile host="app.diagrams.net" modified="2022-12-08T17:09:47.221Z" agent="5.0 (Windows NT 10.0; Win64; x64) AppleWebKit/537.36 (KHTML, like Gecko) Chrome/108.0.0.0 Safari/537.36 Edg/108.0.1462.42" etag="Gp7ZA0Gvcu5WtZpoXQPo" version="20.4.0" type="github">
  <diagram id="W7H-c8fMTK5n7ngbPrY2" name="Page-1">
    <mxGraphModel dx="2554" dy="1872" grid="1" gridSize="10" guides="1" tooltips="1" connect="1" arrows="1" fold="1" page="1" pageScale="1" pageWidth="850" pageHeight="1100" math="0" shadow="0">
      <root>
        <mxCell id="0" />
        <mxCell id="1" parent="0" />
        <mxCell id="xGlJ-D11jMbw9sJtuEpH-1" value="" style="rounded=1;whiteSpace=wrap;html=1;" vertex="1" parent="1">
          <mxGeometry x="120" y="150" width="345" height="340" as="geometry" />
        </mxCell>
        <mxCell id="xGlJ-D11jMbw9sJtuEpH-11" style="rounded=0;orthogonalLoop=1;jettySize=auto;html=1;exitX=1;exitY=0.25;exitDx=0;exitDy=0;entryX=0;entryY=0.5;entryDx=0;entryDy=0;" edge="1" parent="1" source="xGlJ-D11jMbw9sJtuEpH-8" target="xGlJ-D11jMbw9sJtuEpH-9">
          <mxGeometry relative="1" as="geometry" />
        </mxCell>
        <mxCell id="xGlJ-D11jMbw9sJtuEpH-9" value="" style="rounded=0;whiteSpace=wrap;html=1;" vertex="1" parent="1">
          <mxGeometry x="180" y="170" width="140" height="165" as="geometry" />
        </mxCell>
        <mxCell id="xGlJ-D11jMbw9sJtuEpH-2" value="Display Subsystem" style="text;html=1;resizable=0;autosize=1;align=center;verticalAlign=middle;points=[];fillColor=none;strokeColor=none;rounded=0;" vertex="1" parent="1">
          <mxGeometry x="340" y="510" width="130" height="30" as="geometry" />
        </mxCell>
        <mxCell id="xGlJ-D11jMbw9sJtuEpH-3" value="Visual Rendering" style="rounded=0;whiteSpace=wrap;html=1;" vertex="1" parent="1">
          <mxGeometry x="190" y="200" width="120" height="60" as="geometry" />
        </mxCell>
        <mxCell id="xGlJ-D11jMbw9sJtuEpH-13" style="edgeStyle=none;rounded=0;orthogonalLoop=1;jettySize=auto;html=1;exitX=0.5;exitY=0;exitDx=0;exitDy=0;" edge="1" parent="1" source="xGlJ-D11jMbw9sJtuEpH-4">
          <mxGeometry relative="1" as="geometry">
            <mxPoint x="270" y="40" as="targetPoint" />
            <Array as="points">
              <mxPoint x="390" y="40" />
            </Array>
          </mxGeometry>
        </mxCell>
        <mxCell id="xGlJ-D11jMbw9sJtuEpH-4" value="Manual Control &lt;span style=&quot;color: rgba(0, 0, 0, 0); font-family: monospace; font-size: 0px; text-align: start;&quot;&gt;%3CmxGraphModel%3E%3Croot%3E%3CmxCell%20id%3D%220%22%2F%3E%3CmxCell%20id%3D%221%22%20parent%3D%220%22%2F%3E%3CmxCell%20id%3D%222%22%20value%3D%22Visual%20Rendering%22%20style%3D%22rounded%3D0%3BwhiteSpace%3Dwrap%3Bhtml%3D1%3B%22%20vertex%3D%221%22%20parent%3D%221%22%3E%3CmxGeometry%20x%3D%22180%22%20y%3D%22190%22%20width%3D%22120%22%20height%3D%2260%22%20as%3D%22geometry%22%2F%3E%3C%2FmxCell%3E%3C%2Froot%3E%3C%2FmxGraphModel%3E&lt;/span&gt;" style="rounded=0;whiteSpace=wrap;html=1;" vertex="1" parent="1">
          <mxGeometry x="330" y="300" width="120" height="60" as="geometry" />
        </mxCell>
        <mxCell id="xGlJ-D11jMbw9sJtuEpH-5" value="Satellite List Display" style="rounded=0;whiteSpace=wrap;html=1;" vertex="1" parent="1">
          <mxGeometry x="190" y="260" width="120" height="60" as="geometry" />
        </mxCell>
        <mxCell id="xGlJ-D11jMbw9sJtuEpH-6" value="Receiver Display" style="rounded=0;whiteSpace=wrap;html=1;" vertex="1" parent="1">
          <mxGeometry x="190" y="395" width="120" height="60" as="geometry" />
        </mxCell>
        <mxCell id="xGlJ-D11jMbw9sJtuEpH-7" value="" style="rounded=1;whiteSpace=wrap;html=1;" vertex="1" parent="1">
          <mxGeometry x="-80" y="-50" width="345" height="170" as="geometry" />
        </mxCell>
        <mxCell id="xGlJ-D11jMbw9sJtuEpH-12" style="edgeStyle=none;rounded=0;orthogonalLoop=1;jettySize=auto;html=1;exitX=1;exitY=0.75;exitDx=0;exitDy=0;entryX=0;entryY=0.5;entryDx=0;entryDy=0;" edge="1" parent="1" source="xGlJ-D11jMbw9sJtuEpH-8" target="xGlJ-D11jMbw9sJtuEpH-6">
          <mxGeometry relative="1" as="geometry" />
        </mxCell>
        <mxCell id="xGlJ-D11jMbw9sJtuEpH-8" value="" style="rounded=1;whiteSpace=wrap;html=1;" vertex="1" parent="1">
          <mxGeometry x="-190" y="170" width="190" height="340" as="geometry" />
        </mxCell>
        <mxCell id="xGlJ-D11jMbw9sJtuEpH-10" value="Sat. Data" style="text;html=1;resizable=0;autosize=1;align=center;verticalAlign=middle;points=[];fillColor=none;strokeColor=none;rounded=0;" vertex="1" parent="1">
          <mxGeometry x="215" y="165" width="70" height="30" as="geometry" />
        </mxCell>
      </root>
    </mxGraphModel>
  </diagram>
</mxfile>
